<?xml version="1.0" encoding="UTF-8"?>
<!DOCTYPE svg PUBLIC "-//W3C//DTD SVG 1.1//EN" "http://www.w3.org/Graphics/SVG/1.1/DTD/svg11.dtd">
<svg xmlns="http://www.w3.org/2000/svg" version="1.1" width="362px" height="162px" style="shape-rendering:geometricPrecision; text-rendering:geometricPrecision; image-rendering:optimizeQuality; fill-rule:evenodd; clip-rule:evenodd" xmlns:xlink="http://www.w3.org/1999/xlink">
<g><path style="opacity:0.004" fill="#fefffe" d="M 273.5,3.5 C 274.833,4.16667 274.833,4.16667 273.5,3.5 Z"/></g>
<g><path style="opacity:0.004" fill="#fefffe" d="M 193.5,4.5 C 194.833,5.16667 194.833,5.16667 193.5,4.5 Z"/></g>
<g><path style="opacity:0.903" fill="#e07799" d="M 119.5,22.5 C 119.599,18.1521 120.599,14.1521 122.5,10.5C 94.8313,10.3334 67.1647,10.5 39.5,11C 35.6225,12.3689 31.6225,13.2022 27.5,13.5C 32.2769,10.4688 37.6103,8.96876 43.5,9C 71.0105,8.67689 98.6771,9.01022 126.5,10C 124.266,14.3098 121.932,18.4765 119.5,22.5 Z"/></g>
<g><path style="opacity:0.004" fill="#fefffe" d="M 25.5,10.5 C 26.8333,11.1667 26.8333,11.1667 25.5,10.5 Z"/></g>
<g><path style="opacity:1" fill="#fc367f" d="M 119.5,22.5 C 115.546,25.3524 113.546,29.3524 113.5,34.5C 111.771,38.9576 109.771,43.2909 107.5,47.5C 105.676,49.0234 103.51,50.0234 101,50.5C 82.5068,49.2118 64.0068,49.2118 45.5,50.5C 42.9899,54.5183 41.3233,58.8516 40.5,63.5C 39.6236,63.3691 38.9569,63.7025 38.5,64.5C 36.7626,68.2105 34.9293,71.8771 33,75.5C 32.51,76.7932 32.3433,78.1266 32.5,79.5C 26.2135,80.8374 22.8801,78.504 22.5,72.5C 21.1877,73.4604 19.8544,73.2937 18.5,72C 18.8333,71.6667 19.1667,71.3333 19.5,71C 17.4687,70.3678 15.802,69.2012 14.5,67.5C 8.58305,58.3451 6.91638,48.3451 9.5,37.5C 10.4143,35.3359 11.581,33.3359 13,31.5C 14.1139,35.4557 14.9473,35.4557 15.5,31.5C 19.139,30.7325 18.8057,30.0658 14.5,29.5C 14.561,26.2699 16.2277,24.4365 19.5,24C 18.3157,22.8545 18.3157,21.6879 19.5,20.5C 19.8333,19.8333 20.1667,19.1667 20.5,18.5C 23.1651,17.1484 25.4984,15.4818 27.5,13.5C 31.6225,13.2022 35.6225,12.3689 39.5,11C 67.1647,10.5 94.8313,10.3334 122.5,10.5C 120.599,14.1521 119.599,18.1521 119.5,22.5 Z"/></g>
<g><path style="opacity:0.004" fill="#fefffe" d="M 280.5,13.5 C 281.833,14.1667 281.833,14.1667 280.5,13.5 Z"/></g>
<g><path style="opacity:0.004" fill="#fefffe" d="M 337.5,13.5 C 338.833,14.1667 338.833,14.1667 337.5,13.5 Z"/></g>
<g><path style="opacity:0.776" fill="#e591b0" d="M 27.5,13.5 C 25.4984,15.4818 23.1651,17.1484 20.5,18.5C 21.9923,15.6769 24.3257,14.0102 27.5,13.5 Z"/></g>
<g><path style="opacity:0.048" fill="#ececec" d="M 185.5,17.5 C 179.167,17.5 172.833,17.5 166.5,17.5C 171.233,16.8103 176.066,16.1437 181,15.5C 182.622,16.0989 184.122,16.7656 185.5,17.5 Z"/></g>
<g><path style="opacity:0.675" fill="#f7b4cb" d="M 20.5,18.5 C 20.1667,19.1667 19.8333,19.8333 19.5,20.5C 18.8333,20.5 18.1667,20.5 17.5,20.5C 17.9731,19.0937 18.9731,18.427 20.5,18.5 Z"/></g>
<g><path style="opacity:0.998" fill="#434343" d="M 143.5,18.5 C 156.094,18.2379 160.261,23.9046 156,35.5C 149.273,41.2672 143.273,40.6006 138,33.5C 135.958,26.8731 137.792,21.8731 143.5,18.5 Z"/></g>
<g><path style="opacity:1" fill="#383838" d="M 166.5,17.5 C 172.833,17.5 179.167,17.5 185.5,17.5C 185.5,51.5 185.5,85.5 185.5,119.5C 179.167,119.5 172.833,119.5 166.5,119.5C 166.5,85.5 166.5,51.5 166.5,17.5 Z"/></g>
<g><path style="opacity:0.004" fill="#fefffe" d="M 215.5,26.5 C 216.833,27.1667 216.833,27.1667 215.5,26.5 Z"/></g>
<g><path style="opacity:1" fill="#e07097" d="M 119.5,22.5 C 118.008,26.8178 116.008,30.8178 113.5,34.5C 113.546,29.3524 115.546,25.3524 119.5,22.5 Z"/></g>
<g><path style="opacity:0.004" fill="#fefffe" d="M 217.5,28.5 C 218.833,29.1667 218.833,29.1667 217.5,28.5 Z"/></g>
<g><path style="opacity:0.004" fill="#fefffe" d="M 311.5,29.5 C 312.833,30.1667 312.833,30.1667 311.5,29.5 Z"/></g>
<g><path style="opacity:0.004" fill="#fefffe" d="M 301.5,31.5 C 302.833,32.1667 302.833,32.1667 301.5,31.5 Z"/></g>
<g><path style="opacity:0.004" fill="#fefffe" d="M 299.5,35.5 C 300.833,36.1667 300.833,36.1667 299.5,35.5 Z"/></g>
<g><path style="opacity:0.004" fill="#fefffe" d="M 125.5,38.5 C 126.833,39.1667 126.833,39.1667 125.5,38.5 Z"/></g>
<g><path style="opacity:0.004" fill="#fefffe" d="M 280.5,40.5 C 281.833,41.1667 281.833,41.1667 280.5,40.5 Z"/></g>
<g><path style="opacity:0.004" fill="#fefffe" d="M 289.5,40.5 C 290.833,41.1667 290.833,41.1667 289.5,40.5 Z"/></g>
<g><path style="opacity:0.991" fill="#e55c8b" d="M 17.5,20.5 C 18.1667,20.5 18.8333,20.5 19.5,20.5C 18.3157,21.6879 18.3157,22.8545 19.5,24C 16.2277,24.4365 14.561,26.2699 14.5,29.5C 18.8057,30.0658 19.139,30.7325 15.5,31.5C 14.9473,35.4557 14.1139,35.4557 13,31.5C 11.581,33.3359 10.4143,35.3359 9.5,37.5C 6.91638,48.3451 8.58305,58.3451 14.5,67.5C 15.802,69.2012 17.4687,70.3678 19.5,71C 19.1667,71.3333 18.8333,71.6667 18.5,72C 19.8544,73.2937 21.1877,73.4604 22.5,72.5C 22.8801,78.504 26.2135,80.8374 32.5,79.5C 32.1667,80.8333 31.8333,82.1667 31.5,83.5C 30.8333,83.5 30.5,83.8333 30.5,84.5C 12.1651,75.1691 4.33176,60.1691 7,39.5C 8.97753,32.2017 12.4775,25.8684 17.5,20.5 Z"/></g>
<g><path style="opacity:0.998" fill="#3b3b3b" d="M 314.5,71.5 C 314.5,77.1667 314.5,82.8333 314.5,88.5C 302.167,88.5 289.833,88.5 277.5,88.5C 277.232,90.099 277.566,91.4324 278.5,92.5C 281.099,103.437 287.766,106.937 298.5,103C 301.295,101.7 303.961,100.2 306.5,98.5C 309.252,101.004 311.252,104.004 312.5,107.5C 311.942,108.79 310.942,109.623 309.5,110C 309.966,111.299 309.966,112.799 309.5,114.5C 296.683,122.315 283.683,122.481 270.5,115C 261.567,106.471 257.567,95.9706 258.5,83.5C 258.779,76.2347 260.112,69.2347 262.5,62.5C 263.338,62.1583 263.672,61.4916 263.5,60.5C 269.847,48.4947 279.847,43.6613 293.5,46C 306.721,49.2312 313.721,57.7312 314.5,71.5 Z M 286.5,61.5 C 289.374,61.6234 291.874,62.6234 294,64.5C 295.622,67.9869 296.455,71.6535 296.5,75.5C 290.5,75.5 284.5,75.5 278.5,75.5C 278.5,74.5 278.5,73.5 278.5,72.5C 279.195,69.7198 280.195,67.0531 281.5,64.5C 283.113,63.3077 284.78,62.3077 286.5,61.5 Z"/></g>
<g><path style="opacity:0.998" fill="#3b3b3b" d="M 357.5,46.5 C 357.5,52.5 357.5,58.5 357.5,64.5C 353.958,64.1872 350.625,64.5206 347.5,65.5C 345.193,66.9774 343.36,68.9774 342,71.5C 341.5,87.4965 341.333,103.497 341.5,119.5C 335.167,119.5 328.833,119.5 322.5,119.5C 322.5,95.1667 322.5,70.8333 322.5,46.5C 328.176,46.3339 333.843,46.5006 339.5,47C 340.264,49.0693 340.764,51.236 341,53.5C 344.762,46.8648 350.262,44.5315 357.5,46.5 Z"/></g>
<g><path style="opacity:0.062" fill="#e2e2e2" d="M 138.5,47.5 C 138.5,71.1667 138.5,94.8333 138.5,118.5C 144.5,118.5 150.5,118.5 156.5,118.5C 156.5,94.8333 156.5,71.1667 156.5,47.5C 157.498,71.3275 157.831,95.3275 157.5,119.5C 150.833,119.5 144.167,119.5 137.5,119.5C 137.169,95.3275 137.502,71.3275 138.5,47.5 Z"/></g>
<g><path style="opacity:0.997" fill="#353535" d="M 156.5,47.5 C 156.5,71.1667 156.5,94.8333 156.5,118.5C 150.5,118.5 144.5,118.5 138.5,118.5C 138.5,94.8333 138.5,71.1667 138.5,47.5C 144.5,46.1667 150.5,46.1667 156.5,47.5 Z"/></g>
<g><path style="opacity:0.998" fill="#3f3f3f" d="M 221.5,87.5 C 222.167,91.5 222.833,91.5 223.5,87.5C 225.525,74.0399 228.192,60.7066 231.5,47.5C 237.807,46.3361 244.141,46.1694 250.5,47C 245.002,70.9783 238.669,94.9783 231.5,119C 225.251,119.809 219.084,119.642 213,118.5C 208.849,103.894 205.015,89.2274 201.5,74.5C 202.024,70.5724 201.024,67.239 198.5,64.5C 196.516,58.8957 195.016,53.229 194,47.5C 200.444,46.19 206.944,46.19 213.5,47.5C 216.551,60.757 219.218,74.0903 221.5,87.5 Z"/></g>
<g><path style="opacity:1" fill="#c94e95" d="M 107.5,47.5 C 106.27,49.2972 105.604,51.2972 105.5,53.5C 105.167,53.5 104.833,53.5 104.5,53.5C 102.046,52.3794 99.3791,51.546 96.5,51C 80.1667,50.3333 63.8333,50.3333 47.5,51C 45.2799,55.2779 42.9466,59.4446 40.5,63.5C 41.3233,58.8516 42.9899,54.5183 45.5,50.5C 64.0068,49.2118 82.5068,49.2118 101,50.5C 103.51,50.0234 105.676,49.0234 107.5,47.5 Z"/></g>
<g><path style="opacity:0.004" fill="#fefffe" d="M 161.5,53.5 C 162.833,54.1667 162.833,54.1667 161.5,53.5 Z"/></g>
<g><path style="opacity:0.182" fill="#d4d4d4" d="M 357.5,46.5 C 358.49,52.6446 358.823,58.9779 358.5,65.5C 354.833,65.5 351.167,65.5 347.5,65.5C 350.625,64.5206 353.958,64.1872 357.5,64.5C 357.5,58.5 357.5,52.5 357.5,46.5 Z"/></g>
<g><path style="opacity:1" fill="#0d005a" d="M 104.5,53.5 C 98.9896,64.6867 93.3229,75.8534 87.5,87C 70.4681,87.8752 53.4681,87.5419 36.5,86C 34.5087,85.6264 32.842,84.793 31.5,83.5C 31.8333,82.1667 32.1667,80.8333 32.5,79.5C 35.6768,74.4798 38.3434,69.1465 40.5,63.5C 42.9466,59.4446 45.2799,55.2779 47.5,51C 63.8333,50.3333 80.1667,50.3333 96.5,51C 99.3791,51.546 102.046,52.3794 104.5,53.5 Z"/></g>
<g><path style="opacity:0.004" fill="#fefffe" d="M 224.5,59.5 C 225.833,60.1667 225.833,60.1667 224.5,59.5 Z"/></g>
<g><path style="opacity:0.122" fill="#d6d6d6" d="M 263.5,60.5 C 263.672,61.4916 263.338,62.1583 262.5,62.5C 260.969,61.0755 261.302,60.4088 263.5,60.5 Z"/></g>
<g><path style="opacity:0.945" fill="#919191" d="M 286.5,61.5 C 284.78,62.3077 283.113,63.3077 281.5,64.5C 281.5,63.5 281.5,62.5 281.5,61.5C 283.167,61.5 284.833,61.5 286.5,61.5 Z"/></g>
<g><path style="opacity:1" fill="#5f5c88" d="M 109.5,55.5 C 115.855,58.5216 120.522,63.1883 123.5,69.5C 121.401,68.5721 119.734,67.0721 118.5,65C 117.207,64.51 115.873,64.3433 114.5,64.5C 114.762,63.0222 114.429,61.6888 113.5,60.5C 111.77,59.1081 110.436,57.4415 109.5,55.5 Z"/></g>
<g><path style="opacity:1" fill="#37337c" d="M 104.5,53.5 C 104.833,53.5 105.167,53.5 105.5,53.5C 107.153,53.6596 108.486,54.3263 109.5,55.5C 110.436,57.4415 111.77,59.1081 113.5,60.5C 114.429,61.6888 114.762,63.0222 114.5,64.5C 115.873,64.3433 117.207,64.51 118.5,65C 119.734,67.0721 121.401,68.5721 123.5,69.5C 125.335,75.6584 126.335,81.9917 126.5,88.5C 126.708,93.6508 126.042,98.6508 124.5,103.5C 122.833,104.667 121.167,105.833 119.5,107C 120.337,108.011 120.67,109.178 120.5,110.5C 119.448,110.351 118.448,110.517 117.5,111C 118.38,112.356 118.714,113.856 118.5,115.5C 115.5,115.833 113.833,117.5 113.5,120.5C 110.552,120.777 107.719,120.444 105,119.5C 104.691,120.766 104.191,121.933 103.5,123C 100.843,123.175 98.1761,123.008 95.5,122.5C 95.5,123.5 95.5,124.5 95.5,125.5C 70.1974,126.656 42.8641,126.823 13.5,126C 15.2625,122.757 15.9292,119.257 15.5,115.5C 16.1556,116.278 16.9889,116.944 18,117.5C 18.5,117.167 19,116.833 19.5,116.5C 19.9554,113.749 21.2888,111.582 23.5,110C 22.5,109.667 21.5,109.333 20.5,109C 21.8932,107.829 22.7265,106.329 23,104.5C 23.4512,106.929 24.2845,107.096 25.5,105C 24.6051,101.905 24.6051,98.7383 25.5,95.5C 26.8951,91.7099 28.5617,88.0432 30.5,84.5C 30.5,83.8333 30.8333,83.5 31.5,83.5C 32.842,84.793 34.5087,85.6264 36.5,86C 53.4681,87.5419 70.4681,87.8752 87.5,87C 93.3229,75.8534 98.9896,64.6867 104.5,53.5 Z"/></g>
<g><path style="opacity:0.004" fill="#fefffe" d="M 162.5,66.5 C 163.833,67.1667 163.833,67.1667 162.5,66.5 Z"/></g>
<g><path style="opacity:0.99" fill="#6f6f6f" d="M 198.5,64.5 C 201.024,67.239 202.024,70.5724 201.5,74.5C 199.899,71.4498 198.899,68.1165 198.5,64.5 Z"/></g>
<g><path style="opacity:1" fill="#d1418f" d="M 40.5,63.5 C 38.3434,69.1465 35.6768,74.4798 32.5,79.5C 32.3433,78.1266 32.51,76.7932 33,75.5C 34.9293,71.8771 36.7626,68.2105 38.5,64.5C 38.9569,63.7025 39.6236,63.3691 40.5,63.5 Z"/></g>
<g><path style="opacity:0.041" fill="#efefef" d="M 278.5,72.5 C 278.5,73.5 278.5,74.5 278.5,75.5C 284.5,75.5 290.5,75.5 296.5,75.5C 290.355,76.4902 284.022,76.8235 277.5,76.5C 277.232,74.901 277.566,73.5676 278.5,72.5 Z"/></g>
<g><path style="opacity:0.004" fill="#fefffe" d="M 251.5,77.5 C 252.833,78.1667 252.833,78.1667 251.5,77.5 Z"/></g>
<g><path style="opacity:0.989" fill="#5d5785" d="M 123.5,69.5 C 130.185,80.9798 131.018,92.9798 126,105.5C 124.209,109.439 121.709,112.772 118.5,115.5C 118.714,113.856 118.38,112.356 117.5,111C 118.448,110.517 119.448,110.351 120.5,110.5C 120.67,109.178 120.337,108.011 119.5,107C 121.167,105.833 122.833,104.667 124.5,103.5C 126.042,98.6508 126.708,93.6508 126.5,88.5C 126.335,81.9917 125.335,75.6584 123.5,69.5 Z"/></g>
<g><path style="opacity:0.137" fill="#e3e3e3" d="M 221.5,87.5 C 222.167,87.5 222.833,87.5 223.5,87.5C 222.833,91.5 222.167,91.5 221.5,87.5 Z"/></g>
<g><path style="opacity:0.529" fill="#999999" d="M 314.5,71.5 C 315.49,77.31 315.823,83.31 315.5,89.5C 303.167,89.5 290.833,89.5 278.5,89.5C 278.5,90.5 278.5,91.5 278.5,92.5C 277.566,91.4324 277.232,90.099 277.5,88.5C 289.833,88.5 302.167,88.5 314.5,88.5C 314.5,82.8333 314.5,77.1667 314.5,71.5 Z"/></g>
<g><path style="opacity:0.004" fill="#fefffe" d="M 289.5,94.5 C 290.833,95.1667 290.833,95.1667 289.5,94.5 Z"/></g>
<g><path style="opacity:0.004" fill="#fefffe" d="M 196.5,97.5 C 197.833,98.1667 197.833,98.1667 196.5,97.5 Z"/></g>
<g><path style="opacity:0.004" fill="#fefffe" d="M 357.5,99.5 C 358.833,100.167 358.833,100.167 357.5,99.5 Z"/></g>
<g><path style="opacity:0.004" fill="#fefffe" d="M 344.5,104.5 C 345.833,105.167 345.833,105.167 344.5,104.5 Z"/></g>
<g><path style="opacity:1" fill="#747474" d="M 312.5,107.5 C 313.478,107.811 314.145,108.478 314.5,109.5C 313.145,111.521 311.479,113.188 309.5,114.5C 309.966,112.799 309.966,111.299 309.5,110C 310.942,109.623 311.942,108.79 312.5,107.5 Z"/></g>
<g><path style="opacity:1" fill="#46417c" d="M 25.5,95.5 C 24.6051,98.7383 24.6051,101.905 25.5,105C 24.2845,107.096 23.4512,106.929 23,104.5C 22.7265,106.329 21.8932,107.829 20.5,109C 21.5,109.333 22.5,109.667 23.5,110C 21.2888,111.582 19.9554,113.749 19.5,116.5C 19,116.833 18.5,117.167 18,117.5C 16.9889,116.944 16.1556,116.278 15.5,115.5C 18.3255,108.516 21.6588,101.849 25.5,95.5 Z"/></g>
<g><path style="opacity:0.004" fill="#fefffe" d="M 262.5,112.5 C 263.833,113.167 263.833,113.167 262.5,112.5 Z"/></g>
<g><path style="opacity:0.004" fill="#fefffe" d="M 348.5,114.5 C 349.833,115.167 349.833,115.167 348.5,114.5 Z"/></g>
<g><path style="opacity:0.91" fill="#6f6b92" d="M 118.5,115.5 C 117.167,117.5 115.5,119.167 113.5,120.5C 113.833,117.5 115.5,115.833 118.5,115.5 Z"/></g>
<g><path style="opacity:0.004" fill="#fefffe" d="M 209.5,119.5 C 210.833,120.167 210.833,120.167 209.5,119.5 Z"/></g>
<g><path style="opacity:0.004" fill="#fefffe" d="M 228.5,123.5 C 229.833,124.167 229.833,124.167 228.5,123.5 Z"/></g>
<g><path style="opacity:0.929" fill="#454174" d="M 15.5,115.5 C 15.9292,119.257 15.2625,122.757 13.5,126C 42.8641,126.823 70.1974,126.656 95.5,125.5C 95.5,124.5 95.5,123.5 95.5,122.5C 98.1761,123.008 100.843,123.175 103.5,123C 104.191,121.933 104.691,120.766 105,119.5C 107.719,120.444 110.552,120.777 113.5,120.5C 108.349,124.777 102.349,127.11 95.5,127.5C 66.8136,128.158 38.4803,127.492 10.5,125.5C 11.6589,121.849 13.3256,118.515 15.5,115.5 Z"/></g>
<g><path style="opacity:0.055" fill="#ededfe" d="M 10.5,125.5 C 38.4803,127.492 66.8136,128.158 95.5,127.5C 67.0049,128.498 38.3382,128.831 9.5,128.5C 9.26269,127.209 9.59603,126.209 10.5,125.5 Z"/></g>
<g><path style="opacity:0.004" fill="#fefffe" d="M 294.5,129.5 C 295.833,130.167 295.833,130.167 294.5,129.5 Z"/></g>
<g><path style="opacity:0.004" fill="#fefffe" d="M 340.5,130.5 C 341.833,131.167 341.833,131.167 340.5,130.5 Z"/></g>
<g><path style="opacity:0.004" fill="#fefffe" d="M 78.5,135.5 C 79.8333,136.167 79.8333,136.167 78.5,135.5 Z"/></g>
<g><path style="opacity:0.004" fill="#fefffe" d="M 114.5,135.5 C 115.833,136.167 115.833,136.167 114.5,135.5 Z"/></g>
<g><path style="opacity:0.019" fill="#f0f0f0" d="M 151.5,142.5 C 148.167,142.5 144.833,142.5 141.5,142.5C 141.5,148.167 141.5,153.833 141.5,159.5C 140.51,153.69 140.177,147.69 140.5,141.5C 144.371,141.185 148.038,141.518 151.5,142.5 Z"/></g>
<g><path style="opacity:0.969" fill="#737373" d="M 104.5,140.5 C 107.407,141.614 107.907,143.281 106,145.5C 100.91,142.803 98.0766,144.469 97.5,150.5C 98.0517,157.097 101.052,158.764 106.5,155.5C 107.731,156.651 107.731,157.817 106.5,159C 99.3434,161.408 95.3434,158.741 94.5,151C 94.6571,144.345 97.9905,140.845 104.5,140.5 Z"/></g>
<g><path style="opacity:0.102" fill="#e1e1e1" d="M 231.5,142.5 C 232.386,141.224 233.386,141.224 234.5,142.5C 234.376,143.107 234.043,143.44 233.5,143.5C 233.158,142.662 232.492,142.328 231.5,142.5 Z"/></g>
<g><path style="opacity:0.925" fill="#6f6f6f" d="M 247.5,141.5 C 250.482,141.104 253.149,141.771 255.5,143.5C 255.192,144.308 254.692,144.975 254,145.5C 250.61,142.847 247.943,143.514 246,147.5C 244.817,151.274 245.651,154.441 248.5,157C 250.809,157.756 252.809,157.256 254.5,155.5C 255.9,157.782 255.234,159.282 252.5,160C 247.914,160.768 244.747,158.934 243,154.5C 241.379,148.923 242.879,144.589 247.5,141.5 Z"/></g>
<g><path style="opacity:0.072" fill="#e8e8e8" d="M 269.5,142.5 C 266.167,142.5 262.833,142.5 259.5,142.5C 259.5,148.167 259.5,153.833 259.5,159.5C 258.51,153.69 258.177,147.69 258.5,141.5C 262.371,141.185 266.038,141.518 269.5,142.5 Z"/></g>
<g><path style="opacity:0.948" fill="#575757" d="M 151.5,142.5 C 149.365,144.369 146.698,145.036 143.5,144.5C 143.5,146.167 143.5,147.833 143.5,149.5C 145.5,149.5 147.5,149.5 149.5,149.5C 147.5,150.167 145.5,150.833 143.5,151.5C 143.5,153.5 143.5,155.5 143.5,157.5C 146.167,158.167 148.833,158.833 151.5,159.5C 148.167,160.833 144.833,160.833 141.5,159.5C 141.5,153.833 141.5,148.167 141.5,142.5C 144.833,142.5 148.167,142.5 151.5,142.5 Z"/></g>
<g><path style="opacity:0.827" fill="#6f6f6f" d="M 180.5,141.5 C 183.983,140.916 186.983,141.749 189.5,144C 188.975,144.692 188.308,145.192 187.5,145.5C 184.717,142.649 182.384,142.983 180.5,146.5C 183.634,148.144 186.467,150.144 189,152.5C 189.009,159.762 185.509,161.929 178.5,159C 177.269,157.817 177.269,156.651 178.5,155.5C 181.552,158.311 184.219,158.144 186.5,155C 184.79,152.628 182.456,150.962 179.5,150C 177.079,146.952 177.412,144.119 180.5,141.5 Z"/></g>
<g><path style="opacity:0.924" fill="#686868" d="M 164.5,153.5 C 164.987,154.473 165.487,155.473 166,156.5C 166.333,151.833 166.667,147.167 167,142.5C 167.167,145.333 167.333,148.167 167.5,151C 167.481,154.252 166.814,157.085 165.5,159.5C 163.345,155.861 161.178,152.194 159,148.5C 158.667,152.167 158.333,155.833 158,159.5C 157.586,159.957 157.086,160.291 156.5,160.5C 155.504,154.202 155.17,147.868 155.5,141.5C 157.592,141.561 159.092,142.561 160,144.5C 161.761,147.411 163.261,150.411 164.5,153.5 Z"/></g>
<g><path style="opacity:0.208" fill="#dbdbdb" d="M 195.5,144.5 C 197.631,143.686 199.964,143.186 202.5,143C 199.518,142.502 196.518,142.335 193.5,142.5C 193.5,148.167 193.5,153.833 193.5,159.5C 196.833,159.5 200.167,159.5 203.5,159.5C 200.038,160.482 196.371,160.815 192.5,160.5C 192.5,154.167 192.5,147.833 192.5,141.5C 196.167,141.5 199.833,141.5 203.5,141.5C 203.5,142.5 203.5,143.5 203.5,144.5C 200.833,144.5 198.167,144.5 195.5,144.5 Z"/></g>
<g><path style="opacity:0.173" fill="#c8c8c8" d="M 165.5,159.5 C 166.814,157.085 167.481,154.252 167.5,151C 167.333,148.167 167.167,145.333 167,142.5C 166.667,147.167 166.333,151.833 166,156.5C 165.487,155.473 164.987,154.473 164.5,153.5C 165.483,149.702 165.817,145.702 165.5,141.5C 166.5,141.5 167.5,141.5 168.5,141.5C 168.5,147.833 168.5,154.167 168.5,160.5C 167.209,160.737 166.209,160.404 165.5,159.5 Z"/></g>
<g><path style="opacity:0.004" fill="#fefffe" d="M 69.5,147.5 C 70.8333,148.167 70.8333,148.167 69.5,147.5 Z"/></g>
<g><path style="opacity:0.099" fill="#e7e7e7" d="M 236.5,142.5 C 237.209,141.596 238.209,141.263 239.5,141.5C 239.823,147.69 239.49,153.69 238.5,159.5C 239.117,153.402 238.45,147.735 236.5,142.5 Z"/></g>
<g><path style="opacity:0.031" fill="#efefef" d="M 120.5,142.5 C 117.5,142.5 114.5,142.5 111.5,142.5C 111.5,148.167 111.5,153.833 111.5,159.5C 110.51,153.69 110.177,147.69 110.5,141.5C 114.042,141.187 117.375,141.521 120.5,142.5 Z"/></g>
<g><path style="opacity:0.719" fill="#767676" d="M 17.5,149.5 C 36.1667,149.5 54.8333,149.5 73.5,149.5C 73.5,150.5 73.5,151.5 73.5,152.5C 54.8333,152.5 36.1667,152.5 17.5,152.5C 17.5,151.5 17.5,150.5 17.5,149.5 Z"/></g>
<g><path style="opacity:0.975" fill="#737373" d="M 81.5,158.5 C 81.8417,157.662 82.5084,157.328 83.5,157.5C 85.1992,157.66 86.8659,157.494 88.5,157C 89.0219,156.439 89.3552,155.772 89.5,155C 86.8968,152.661 84.0635,150.494 81,148.5C 80.9394,141.93 84.1061,139.93 90.5,142.5C 91.8333,143.5 91.8333,144.5 90.5,145.5C 87.8314,142.79 85.4981,142.957 83.5,146C 83.6448,146.772 83.9781,147.439 84.5,148C 90.1177,148.93 92.6177,152.096 92,157.5C 88.6583,160.946 85.1583,161.279 81.5,158.5 Z"/></g>
<g><path style="opacity:1" fill="#575757" d="M 137.5,142.5 C 135.365,144.369 132.698,145.036 129.5,144.5C 129.5,146.167 129.5,147.833 129.5,149.5C 131.5,149.5 133.5,149.5 135.5,149.5C 133.5,150.167 131.5,150.833 129.5,151.5C 129.5,153.5 129.5,155.5 129.5,157.5C 132.698,156.964 135.365,157.631 137.5,159.5C 134.167,159.5 130.833,159.5 127.5,159.5C 127.5,153.833 127.5,148.167 127.5,142.5C 130.833,142.5 134.167,142.5 137.5,142.5 Z"/></g>
<g><path style="opacity:0.98" fill="#4b4b4b" d="M 195.5,144.5 C 195.5,146.167 195.5,147.833 195.5,149.5C 197.5,149.5 199.5,149.5 201.5,149.5C 199.5,150.167 197.5,150.833 195.5,151.5C 195.5,153.5 195.5,155.5 195.5,157.5C 198.698,156.964 201.365,157.631 203.5,159.5C 200.167,159.5 196.833,159.5 193.5,159.5C 193.5,153.833 193.5,148.167 193.5,142.5C 196.518,142.335 199.518,142.502 202.5,143C 199.964,143.186 197.631,143.686 195.5,144.5 Z"/></g>
<g><path style="opacity:0.943" fill="#9d9d9d" d="M 216.5,148.5 C 216.842,149.338 217.508,149.672 218.5,149.5C 217.4,150.605 216.733,151.938 216.5,153.5C 214.512,151.509 212.178,150.175 209.5,149.5C 211.95,149.702 214.283,149.369 216.5,148.5 Z"/></g>
<g><path style="opacity:0.592" fill="#969696" d="M 135.5,149.5 C 136.043,149.56 136.376,149.893 136.5,150.5C 134.257,151.474 131.924,151.808 129.5,151.5C 131.5,150.833 133.5,150.167 135.5,149.5 Z"/></g>
<g><path style="opacity:0.537" fill="#8f8f8f" d="M 149.5,149.5 C 150.043,149.56 150.376,149.893 150.5,150.5C 148.257,151.474 145.924,151.808 143.5,151.5C 145.5,150.833 147.5,150.167 149.5,149.5 Z"/></g>
<g><path style="opacity:0.529" fill="#9a9a9a" d="M 201.5,149.5 C 202.043,149.56 202.376,149.893 202.5,150.5C 200.257,151.474 197.924,151.808 195.5,151.5C 197.5,150.833 199.5,150.167 201.5,149.5 Z"/></g>
<g><path style="opacity:0.514" fill="#969696" d="M 267.5,149.5 C 268.043,149.56 268.376,149.893 268.5,150.5C 266.257,151.474 263.924,151.808 261.5,151.5C 263.5,150.833 265.5,150.167 267.5,149.5 Z"/></g>
<g><path style="opacity:0.933" fill="#737373" d="M 275.5,141.5 C 277.857,141.337 280.19,141.503 282.5,142C 283.731,143.183 283.731,144.349 282.5,145.5C 279.717,142.649 277.384,142.983 275.5,146.5C 278.596,148.131 281.43,150.131 284,152.5C 284.702,158.758 281.868,161.258 275.5,160C 272.766,159.282 272.1,157.782 273.5,155.5C 276.552,158.311 279.219,158.144 281.5,155C 278.591,152.622 275.758,150.122 273,147.5C 272.333,146.5 272.333,145.5 273,144.5C 274.045,143.627 274.878,142.627 275.5,141.5 Z"/></g>
<g><path style="opacity:0.252" fill="#d4d4d4" d="M 137.5,142.5 C 134.167,142.5 130.833,142.5 127.5,142.5C 127.5,148.167 127.5,153.833 127.5,159.5C 130.833,159.5 134.167,159.5 137.5,159.5C 134.038,160.482 130.371,160.815 126.5,160.5C 126.5,154.167 126.5,147.833 126.5,141.5C 130.371,141.185 134.038,141.518 137.5,142.5 Z"/></g>
<g><path style="opacity:0.96" fill="#464646" d="M 236.5,142.5 C 238.45,147.735 239.117,153.402 238.5,159.5C 238.44,160.043 238.107,160.376 237.5,160.5C 236.504,154.537 236.171,148.537 236.5,142.5 Z"/></g>
<g><path style="opacity:0.157" fill="#dbdbdb" d="M 291.5,149.5 C 300.308,150.832 309.475,151.498 319,151.5C 328.525,151.498 337.692,150.832 346.5,149.5C 347.404,150.209 347.737,151.209 347.5,152.5C 328.5,152.5 309.5,152.5 290.5,152.5C 290.263,151.209 290.596,150.209 291.5,149.5 Z"/></g>
<g><path style="opacity:0.946" fill="#474747" d="M 291.5,149.5 C 309.833,149.5 328.167,149.5 346.5,149.5C 337.692,150.832 328.525,151.498 319,151.5C 309.475,151.498 300.308,150.832 291.5,149.5 Z"/></g>
<g><path style="opacity:0.987" fill="#6e6e6e" d="M 120.5,148.5 C 120.328,149.492 120.662,150.158 121.5,150.5C 120.313,152.975 120.647,155.309 122.5,157.5C 122.5,158.833 121.833,159.5 120.5,159.5C 119.241,155.892 116.908,153.559 113.5,152.5C 114.609,151.71 115.942,151.21 117.5,151C 115.942,150.79 114.609,150.29 113.5,149.5C 115.95,149.702 118.283,149.369 120.5,148.5 Z"/></g>
<g><path style="opacity:0.99" fill="#4f4f4f" d="M 120.5,142.5 C 123.976,144.859 124.309,147.526 121.5,150.5C 120.662,150.158 120.328,149.492 120.5,148.5C 120.67,147.178 120.337,146.011 119.5,145C 117.527,144.505 115.527,144.338 113.5,144.5C 113.5,146.167 113.5,147.833 113.5,149.5C 114.609,150.29 115.942,150.79 117.5,151C 115.942,151.21 114.609,151.71 113.5,152.5C 113.813,155.247 113.48,157.914 112.5,160.5C 111.893,160.376 111.56,160.043 111.5,159.5C 111.5,153.833 111.5,148.167 111.5,142.5C 114.5,142.5 117.5,142.5 120.5,142.5 Z M 120.5,148.5 C 118.283,149.369 115.95,149.702 113.5,149.5C 113.5,147.833 113.5,146.167 113.5,144.5C 115.527,144.338 117.527,144.505 119.5,145C 120.337,146.011 120.67,147.178 120.5,148.5 Z"/></g>
<g><path style="opacity:0.91" fill="#767676" d="M 226.5,155.5 C 226.369,156.239 226.536,156.906 227,157.5C 228.188,156.437 228.688,155.103 228.5,153.5C 229.303,149.761 230.303,146.095 231.5,142.5C 232.492,142.328 233.158,142.662 233.5,143.5C 232.514,148.96 231.014,154.293 229,159.5C 227.286,160.925 225.953,160.592 225,158.5C 223.56,152.847 221.727,147.347 219.5,142C 220.784,141.316 221.951,141.483 223,142.5C 224.684,146.716 225.851,151.049 226.5,155.5 Z"/></g>
<g><path style="opacity:0.004" fill="#fefffe" d="M 190.5,154.5 C 191.833,155.167 191.833,155.167 190.5,154.5 Z"/></g>
<g><path style="opacity:0.91" fill="#9e9e9e" d="M 83.5,157.5 C 82.5084,157.328 81.8417,157.662 81.5,158.5C 79.4508,158.294 79.1175,157.461 80.5,156C 81.9976,155.415 82.9976,155.915 83.5,157.5 Z"/></g>
<g><path style="opacity:0.925" fill="#6d6d6d" d="M 218.5,149.5 C 217.508,149.672 216.842,149.338 216.5,148.5C 216.67,147.178 216.337,146.011 215.5,145C 213.527,144.505 211.527,144.338 209.5,144.5C 209.5,146.167 209.5,147.833 209.5,149.5C 212.178,150.175 214.512,151.509 216.5,153.5C 217.167,154.833 217.833,156.167 218.5,157.5C 218.5,158.833 217.833,159.5 216.5,159.5C 215.241,155.892 212.908,153.559 209.5,152.5C 209.813,155.247 209.48,157.914 208.5,160.5C 207.914,160.291 207.414,159.957 207,159.5C 206.62,153.744 206.786,147.911 207.5,142C 211.909,140.738 215.743,141.572 219,144.5C 219.78,146.387 219.613,148.054 218.5,149.5 Z M 216.5,148.5 C 214.283,149.369 211.95,149.702 209.5,149.5C 209.5,147.833 209.5,146.167 209.5,144.5C 211.527,144.338 213.527,144.505 215.5,145C 216.337,146.011 216.67,147.178 216.5,148.5 Z"/></g>
<g><path style="opacity:0.255" fill="#d0d0d0" d="M 228.5,153.5 C 228.688,155.103 228.188,156.437 227,157.5C 226.536,156.906 226.369,156.239 226.5,155.5C 227.167,154.833 227.833,154.167 228.5,153.5 Z"/></g>
<g><path style="opacity:0.574" fill="#979797" d="M 143.5,157.5 C 146.572,157.183 149.572,157.516 152.5,158.5C 152.376,159.107 152.043,159.44 151.5,159.5C 148.833,158.833 146.167,158.167 143.5,157.5 Z"/></g>
<g><path style="opacity:0.976" fill="#5b5b5b" d="M 269.5,142.5 C 267.365,144.369 264.698,145.036 261.5,144.5C 261.5,146.167 261.5,147.833 261.5,149.5C 263.5,149.5 265.5,149.5 267.5,149.5C 265.5,150.167 263.5,150.833 261.5,151.5C 261.5,153.5 261.5,155.5 261.5,157.5C 264.167,158.167 266.833,158.833 269.5,159.5C 266.167,160.833 262.833,160.833 259.5,159.5C 259.5,153.833 259.5,148.167 259.5,142.5C 262.833,142.5 266.167,142.5 269.5,142.5 Z"/></g>
<g><path style="opacity:0.498" fill="#9f9f9f" d="M 261.5,157.5 C 264.572,157.183 267.572,157.516 270.5,158.5C 270.376,159.107 270.043,159.44 269.5,159.5C 266.833,158.833 264.167,158.167 261.5,157.5 Z"/></g>
<g><path style="opacity:0.004" fill="#fefffe" d="M 66.5,159.5 C 67.8333,160.167 67.8333,160.167 66.5,159.5 Z"/></g>
<g><path style="opacity:0.063" fill="#e6e6e6" d="M 122.5,157.5 C 123.404,158.209 123.737,159.209 123.5,160.5C 122.209,160.737 121.209,160.404 120.5,159.5C 121.833,159.5 122.5,158.833 122.5,157.5 Z"/></g>
<g><path style="opacity:0.03" fill="#eeeeee" d="M 218.5,157.5 C 219.404,158.209 219.737,159.209 219.5,160.5C 218.209,160.737 217.209,160.404 216.5,159.5C 217.833,159.5 218.5,158.833 218.5,157.5 Z"/></g>
</svg>
